<svg id="Layer_1" data-name="Layer 1" xmlns="http://www.w3.org/2000/svg" viewBox="0 0 595.02 607.15"><defs><style>.cls-1{fill:#7dacd1;}.cls-2{fill:#e4ce10;}.cls-3{opacity:0.08;}.cls-4{fill:#cde0eb;}</style></defs><title>logos</title><polygon class="cls-1" points="108.02 421.75 351.52 0 595.02 421.75 108.02 421.75"/><path d="M351.52,50l200.2,346.75H151.32L351.52,50m0-50L108,421.75H595L351.52,0h0Z"/><polygon class="cls-2" points="0 450.28 151.01 188.72 302.03 450.28 0 450.28"/><path d="M151,228.72L267.39,430.28H34.64L151,228.72m0-40L0,450.28H302L151,188.72h0Z"/><polygon points="86.66 450.3 151.01 338.84 215.37 450.3 86.66 450.3"/><g class="cls-3"><polygon points="151.01 190.01 1.05 449.76 151.01 449.76 151.01 190.01"/></g><polygon class="cls-4" points="351.52 50.01 266.16 197.98 330.75 152.39 351.81 194.56 372.87 152.39 436.96 197.98 351.52 50.01"/><polygon points="413.19 342.04 460.86 259.47 508.53 342.04 413.19 342.04"/><polygon points="402.4 401.77 460.86 300.52 519.31 401.77 402.4 401.77"/><rect x="449.82" y="384.67" width="22.08" height="65.09"/><polygon points="313.12 357.73 377.47 246.27 441.82 357.73 313.12 357.73"/><polygon points="298.56 438.36 377.47 301.69 456.38 438.36 298.56 438.36"/><rect x="362.57" y="415.27" width="29.81" height="87.86"/><g class="cls-3"><polygon points="351.52 0 595.02 421.75 351.52 421.75 351.52 0"/></g><path d="M50.73,605.1V527.64H79.49c13.76,0,23,5.34,23,20.13,0,7-2.26,12.63-8.53,15.82v0.21c11.09,1.44,15.82,8.94,15.82,19.72,0,16.23-13.87,21.57-28,21.57h-31Zm20.13-47h2.26c5.34,0,10.89-.92,10.89-7.5,0-7.09-6.27-7.5-11.71-7.5H70.86v15Zm0,31.64h2.57c6,0,16,.31,16-8.22,0-9.35-10-8.42-16.54-8.42H70.86v16.64Z"/><path d="M181.79,553.63a21.85,21.85,0,0,0-17.67-8.53c-12.33,0-20.65,9.45-20.65,21.47,0,12.22,8.42,21.06,21,21.06a23.16,23.16,0,0,0,17.36-8.22v24.14c-6.68,2.05-11.5,3.6-17.77,3.6A43.12,43.12,0,0,1,135,595.75c-8.53-7.7-12.43-17.77-12.43-29.28a40.53,40.53,0,0,1,11.4-28.35,42,42,0,0,1,29.48-12.53,47.23,47.23,0,0,1,18.39,3.9v24.14Z"/><path d="M245.07,527.64h25l-30.82,36.67L272.8,605.1H246.71l-26-33.59h-0.21V605.1H200.38V527.64h20.13v31.95h0.21Z"/><path d="M310.7,577.67h0.21l16.23-50h16l15.2,50h0.21l14.59-50h21L369.36,605.1H348.81l-13.56-44.89H335l-15.2,44.89H299.4l-23.11-77.45h21Z"/><path d="M405.3,527.64h28.56c21.57,0,39.34,16.95,39.34,38.73s-17.87,38.73-39.34,38.73H405.3V527.64ZM425.43,588H430c12,0,22.29-6.57,22.29-21.67,0-13.87-9.14-21.67-22.08-21.67h-4.73V588Z"/><path d="M531.23,547.57a21.18,21.18,0,0,0-13.35-5.14c-3.7,0-8.63,2.16-8.63,6.47,0,4.52,5.44,6.27,8.94,7.4l5.14,1.54c10.79,3.18,19.11,8.63,19.11,21.16,0,7.7-1.85,15.61-8,20.85s-14.18,7.29-22,7.29a47.79,47.79,0,0,1-27.22-8.83l8.63-16.23c5,4.42,11,8,17.87,8,4.73,0,9.76-2.36,9.76-7.81,0-5.65-7.91-7.6-12.22-8.83-12.63-3.59-21-6.88-21-21.88,0-15.72,11.2-26,26.71-26A53,53,0,0,1,539.25,532Z"/></svg>