<?xml version="1.0" encoding="utf-8"?>
<!-- Generator: Adobe Illustrator 19.2.1, SVG Export Plug-In . SVG Version: 6.00 Build 0)  -->
<svg version="1.1" id="Layer_1" xmlns="http://www.w3.org/2000/svg" xmlns:xlink="http://www.w3.org/1999/xlink" x="0px" y="0px"
	 viewBox="0 0 698.5 524.8" style="enable-background:new 0 0 698.5 524.8;" xml:space="preserve">
<style type="text/css">
	.st0{fill:#2D2D2D;}
	.st1{fill:#7DACD1;}
	.st2{fill:#E4CE10;}
	.st3{opacity:8.000000e-02;}
	.st4{fill:#CDE0EB;}
</style>
<g>
	<g>
		<path class="st0" d="M582.8,9.6c0,6.8-10.7,4.1-16.6,4.5C476.7,12,373.1,33.7,373.1,33.7s-1.1,18.7-9.6,18.5
			c-9.7-0.2-5.3-10.2-4.8-16.5c-11.9,3.3-37.9,8.8-49.9,11.9c-0.7,4.6-14.3,101.9,3.4,118.1c3.6,3.3,5.1,4.7,11.5-4.1
			c7-9.3,20.7-42.1,24.6-75.9c1.2-10.1,2.8-15.5,13.9-14.1c10.3,1.3,2.2,22.6,1.6,29.1c-1.3,12.3-0.9,43.5,5.2,54.8
			c7.4,13.7,21-20.3,26.7-29.4c-1.5-7.2-13.6-51.5-12.9-55.9c0.7-4,2.8-7.1,7.9-6c4.3,1,5,4.3,5.9,8.2c3.6,14.2,6.3,28.6,9.7,42.8
			c2.8,11.5,4,24,10.4,34c16.7-12,31.5-91,37.6-93.6c8-3.4,9.6,3.6,7.6,9.7c-3.5,10.6-11.4,32.2-14.4,47.3
			c2.7,16.4,7.4,15.4,23.1,16.7c0.7-24.5,0.8-83.2,33.1-84.7c34-1.6,8.1,78.2-14.8,87.3c-2,7.7,0.4,23.2,8,23.3
			c17.1,0.2,25.3-29.5,30.2-42.2c3.1-8.2,5.4-16.5,6.5-25.2c0.8-6.6,1-14.5,10-13.6c18,1.8,3.2,33.1,0.3,41.8
			c-5.7,16.8-11.7,28.2-25.7,39.7c-12.5,10.2-42.7,11.7-46.3-17.9c-2.2,0-4.2-0.1-5.5-0.1c-9.6-0.2-17.6-2.9-23.7-10.5
			c-4.6,10.3-13.8,35.2-25.5,34.8c-12.1-0.4-17.1-18.6-17.7-19.8c-3.8,3.6-16.8,22.5-22,23.9c-11.8,3.3-26.1-6.5-28.5-24.7
			c-3.2,7.9-14,33.3-28.7,35c-15.7,1.8-26.5-5.8-31.1-23.7c-7.6,15-9.9,25.3-22.7,36.9c-10.3,9.4-33.1,16.3-30.2-6.2
			c-3.3,25.5-61.3,46.1-61.3,46.1s-13.1-4.5-16.2-5.2c2.5-1.9,18.1-8.1,26.1-13.2c-10,0.1-33.4-34.4-5.5-77.6
			c14.2-21.9,52-24.7,57.6-8.3c1.2-5.1-0.6-10.2,4.4-19c3.1-5.4,13.9-4.2,14.5,1.7c0.7,6.8-2.5,11.3-3.5,16.4
			c-8.8,43.3-9.3,63.4-1.2,63.4c9.1,0,35.2-51.7,40.7-136.6c-15.7,3.1-89.7,26.2-96.4,24.3c-6.8-1.9-1-8.6,8.3-12.8
			c9.2-4.1,85-23.3,89.6-25.5c1.1-4.5-1-27.2,13.1-25.6c10.1,1.2,6,15.8,4.9,22.2c10.1-2.1,45.3-10.6,49.1-11.5
			c1-2.8,1.8-19.8,7.5-21.2c10.5-2.4,7.9,14.7,7.3,19C381.3,19.4,582.8-16.8,582.8,9.6z M212.7,195.5c13-10.2,31.6-49.2,12.4-58.7
			c-34.3-17-51.2,29.6-46.3,45.9C183,196.7,199.6,206.5,212.7,195.5z M487.8,121c13.8-10.8,23.1-50.9,18.5-67.5
			C490.3,71.2,486.3,108.7,487.8,121z"/>
		<path class="st0" d="M653,69.2c-29.8-8.3-19.6,23.1-4.6,50.5c9.4,17.1,12.7,25.5,2.3,42.7c-6.6,10.9-18.4,17.8-31.1,15.4
			c-23.4-4.3-33.3-22.9-27.3-28c-10.1,8.6-15.4,17-29.1,10.1c-38.6-19.5,22.6-52.3,21.9-77.2c-0.4-14.2-21.8-11.7-31.1-13.3
			c-17.6-3-27.2-11.9-27.9-31.8c13.1-5.5,14.5,5.2,21.9,13c7.7,8.1,12.4,9.3,22.9,10.5c9.9,1.1,47.2,12.4,22.8,42.6
			c-7.9,9.8-20.7,20.2-26,31.5c-4.7,10-2.1,18.7,9.2,17.5c10.7-1.1,14.6-12.9,26.9-30.2c4.1-5.7,8.2-1.7,14.3,0.3
			c-7.2,14.9-25.2,42.8,0.4,47.6c6.3,1.2,16.9-6.9,19.1-13.2c4.6-13.3,2.6-21.3-4.1-33.5c-6.5-11.8-16.2-21.4-16.9-35.6
			c-1.5-30.6,34.4-34.4,53.6-18.3c8,6.7,8.5,23.5,1.7,31.6c-5.9,7-13.3,7.2-20.9,0.1C659.7,95.6,670.6,75.6,653,69.2z"/>
		<path class="st0" d="M654.9,175.7c6.5-6,12.4-7.1,15.9-2.6c1.3,1.7,2,5.8,0.9,7.2C668.4,184.8,653.5,182.5,654.9,175.7z"/>
	</g>
	<g>
		<path class="st0" d="M320.6,253.6c2.3,3.5,5.8,5.6,10.1,5.6c4.8,0,8.5-2.9,8.5-7.4c0-2.9-2-4.7-4.9-6.5l-4.6-2.8
			c-3.4-2-6.1-4.8-6.1-9.2c0-5.9,5.2-10.9,12.2-10.9c4.7,0,8.7,2.3,11.2,5.5l-3.1,2.8c-2-2.4-4.8-4.3-8.5-4.3
			c-4.4,0-7.1,3.2-7.1,6.4c0,3.1,2.2,4.7,5.1,6.4l4.6,2.7c3.8,2.2,5.9,4.9,5.9,9.2c0,7-5.7,12.1-13.7,12.1c-5.4,0-10-2.3-13.1-7
			L320.6,253.6z"/>
		<path class="st0" d="M364.6,232.5c6.5,0,9,4.6,9,10.6c0,2.3-0.7,4.6-1,5.7h-19c-1.1,7.5,2.8,10.7,7.9,10.7c2.3,0,4.7-1.1,6.5-2.5
			l1.8,3.1c-2.3,1.7-5.6,3.1-9.4,3.1c-6.9,0-11.5-4.4-11.5-12.2C349,240,357,232.5,364.6,232.5z M369.4,245.7c0.2-1,0.3-1.9,0.3-3
			c0-3.3-1.4-6.5-5.6-6.5c-4.3,0-8.5,3.7-10,9.5H369.4z"/>
		<path class="st0" d="M394.1,232.5c3.5,0,5.8,1.6,7.6,3.5l-2.7,2.9c-1.5-1.8-2.9-2.6-5.2-2.6c-5.8,0-11.3,6.8-11.3,14.8
			c0,5.3,2.3,8.2,6.9,8.2c2.6,0,4.7-1.2,6.5-2.6l2,3c-2.1,1.6-5.1,3.4-9.4,3.4c-6.4,0-10.7-4.3-10.7-11.7
			C377.9,240.6,385.7,232.5,394.1,232.5z"/>
		<path class="st0" d="M403.2,251.4c0-11,7.7-18.9,15.7-18.9c6.3,0,10.4,4.4,10.4,11.7c0,11-7.8,18.9-15.8,18.9
			C407.3,263.1,403.2,258.7,403.2,251.4z M407.8,251.1c0,5.3,2.2,8.2,6.2,8.2c5.4,0,10.6-6.6,10.6-14.8c0-5.3-2.2-8.2-6.2-8.2
			C413.1,236.3,407.8,243,407.8,251.1z"/>
		<path class="st0" d="M439.4,233.2h3.8l-0.4,4.4h0.2c3.3-2.9,6.5-5.1,10.2-5.1c4.9,0,6.9,2.8,6.9,7.3c0,1.4-0.1,2.4-0.5,4
			l-3.7,18.6h-4.6l3.6-18c0.3-1.6,0.5-2.4,0.5-3.4c0-2.9-1.3-4.5-4.3-4.5c-2.3,0-5.1,1.6-8.8,5.3l-4.1,20.6h-4.6L439.4,233.2z"/>
		<path class="st0" d="M489.4,231.1l2.3-11.4h4.6l-8.6,42.7h-3.8l0.5-4.3h-0.2c-2.8,3-6.5,5-10.1,5c-5.1,0-8.4-3.7-8.4-10.6
			c0-11.2,7.7-20,15.8-20c3.1,0,5.5,1.7,6.9,4.3h0.2L489.4,231.1z M484.8,253.7l2.6-13c-1.7-3.1-3.7-4.3-5.9-4.3
			c-5.8,0-11.2,7.4-11.2,15.5c0,5,2.1,7.4,5.3,7.4C478.7,259.3,481.9,257.5,484.8,253.7z"/>
		<path class="st0" d="M514.7,237h-4.3l0.7-3.4l4.6-0.3l2.2-8h3.9l-1.6,8h7.4l-0.7,3.7h-7.5l-3.4,16.7c-0.1,0.7-0.2,1.4-0.2,2.2
			c0,2.4,1,3.6,3.7,3.6c1.1,0,2.2-0.5,3.1-0.9l1,3.3c-1.3,0.6-3.2,1.3-5.5,1.3c-5.1,0-7-2.9-7-6.5c0-1.2,0.2-2.2,0.3-3.2L514.7,237z
			"/>
		<path class="st0" d="M528,251.4c0-11,7.7-18.9,15.7-18.9c6.3,0,10.4,4.4,10.4,11.7c0,11-7.8,18.9-15.8,18.9
			C532.1,263.1,528,258.7,528,251.4z M532.6,251.1c0,5.3,2.2,8.2,6.2,8.2c5.4,0,10.6-6.6,10.6-14.8c0-5.3-2.2-8.2-6.2-8.2
			C537.9,236.3,532.6,243,532.6,251.1z"/>
		<path class="st0" d="M578,223.1h4.7l9,25.2l2.5,8.2h0.2c0.5-3.9,1-8.5,1.8-12.5l4.1-20.9h4.5l-7.9,39.3h-4.6l-8.9-25.1l-2.6-8.5
			h-0.2c-0.5,4.1-1.1,8.5-1.9,12.4l-4.2,21.2h-4.5L578,223.1z"/>
		<path class="st0" d="M607.5,251.4c0-11,7.7-18.9,15.7-18.9c6.3,0,10.4,4.4,10.4,11.7c0,11-7.8,18.9-15.8,18.9
			C611.6,263.1,607.5,258.7,607.5,251.4z M612.2,251.1c0,5.3,2.2,8.2,6.2,8.2c5.4,0,10.6-6.6,10.6-14.8c0-5.3-2.2-8.2-6.2-8.2
			C617.4,236.3,612.2,243,612.2,251.1z"/>
		<path class="st0" d="M643.7,233.2h3.8l-0.4,4.4h0.2c3.3-2.9,6.5-5.1,10.2-5.1c4.9,0,6.9,2.8,6.9,7.3c0,1.4-0.1,2.4-0.5,4
			l-3.7,18.6h-4.6l3.6-18c0.3-1.6,0.5-2.4,0.5-3.4c0-2.9-1.3-4.5-4.3-4.5c-2.3,0-5.1,1.6-8.8,5.3l-4.1,20.6H638L643.7,233.2z"/>
		<path class="st0" d="M685.4,232.5c6.5,0,9,4.6,9,10.6c0,2.3-0.7,4.6-1,5.7h-19c-1.1,7.5,2.8,10.7,7.9,10.7c2.3,0,4.7-1.1,6.5-2.5
			l1.8,3.1c-2.3,1.7-5.6,3.1-9.4,3.1c-6.9,0-11.5-4.4-11.5-12.2C669.8,240,677.8,232.5,685.4,232.5z M690.2,245.7
			c0.2-1,0.3-1.9,0.3-3c0-3.3-1.4-6.5-5.6-6.5c-4.3,0-8.5,3.7-10,9.5H690.2z"/>
		<path class="st0" d="M469.6,305.2h4.6l-5.9,29.2h-4.6L469.6,305.2z M470.5,296.5c0-2,1.6-3.5,3.5-3.5c1.6,0,2.9,1,2.9,2.8
			c0,2-1.6,3.4-3.5,3.4C471.9,299.2,470.5,298.2,470.5,296.5z"/>
		<path class="st0" d="M483.7,305.2h3.8l-0.4,4.4h0.2c3.3-2.9,6.5-5.1,10.2-5.1c4.9,0,6.9,2.8,6.9,7.3c0,1.4-0.1,2.4-0.5,4
			l-3.7,18.6h-4.6l3.6-18c0.3-1.6,0.5-2.4,0.5-3.4c0-2.9-1.3-4.5-4.3-4.5c-2.3,0-5.1,1.6-8.8,5.3l-4.1,20.6H478L483.7,305.2z"/>
		<path class="st0" d="M550.6,343.4c-1.3,0.4-2.6,0.7-3.9,0.7c-6.7,0-11.8-2.9-13.7-9.4c-6.7-1.5-10.2-7.6-10.2-16.1
			c0-12,7.9-24.3,19.1-24.3c8.8,0,13.6,6.5,13.6,16.4c0,11.6-7.3,23.3-17.8,24.3c1.4,3.5,5,5.2,9.2,5.2c1.2,0,2.2-0.2,3.3-0.4
			L550.6,343.4z M536.6,331.1c8.5,0,14.2-10.7,14.2-19.9c0-7.7-2.9-12.8-9.1-12.8c-8.5,0-14.2,10.7-14.2,19.9
			C527.5,325.9,530.3,331.1,536.6,331.1z"/>
		<path class="st0" d="M581,334.4h-3.8l0.5-4.4h-0.2c-3.2,2.8-6.5,5.2-10.1,5.2c-4.9,0-6.9-2.8-6.9-7.3c0-1.4,0.1-2.5,0.5-4
			l3.7-18.6h4.6l-3.7,18c-0.3,1.6-0.5,2.4-0.5,3.4c0,2.9,1.3,4.5,4.3,4.5c2.3,0,5.1-1.6,8.6-5.3l4.1-20.6h4.6L581,334.4z"/>
		<path class="st0" d="M606.9,304.5c3.1,0,5.6,1.7,7,4.4h0.2l1.1-3.7h3.7l-5.8,29.2h-3.8l0.5-4.3h-0.2c-2.8,3-6.5,5-10.1,5
			c-5.1,0-8.4-3.7-8.4-10.6C591.1,313.3,598.8,304.5,606.9,304.5z M610.4,325.7l2.6-13c-1.7-3.1-3.7-4.3-5.9-4.3
			c-5.8,0-11.2,7.4-11.2,15.5c0,5,2.1,7.4,5.3,7.4C604.3,331.3,607.5,329.5,610.4,325.7z"/>
		<path class="st0" d="M631.4,291.7h4.6l-7.5,37.4c-0.1,0.6-0.1,0.9-0.1,1.1c0,0.7,0.4,1.1,1,1.1c0.2,0,0.4,0,1-0.2l0.1,3.5
			c-0.8,0.3-1.6,0.5-2.9,0.5c-2.6,0-3.9-1.4-3.9-3.8c0-0.7,0.1-1.5,0.4-2.5L631.4,291.7z"/>
		<path class="st0" d="M643.5,305.2h4.6l-5.9,29.2h-4.6L643.5,305.2z M644.5,296.5c0-2,1.6-3.5,3.5-3.5c1.6,0,2.9,1,2.9,2.8
			c0,2-1.6,3.4-3.5,3.4C645.9,299.2,644.5,298.2,644.5,296.5z"/>
		<path class="st0" d="M657.9,308.9h-4.3l0.7-3.4l4.6-0.3l2.2-8h3.9l-1.6,8h7.4l-0.7,3.7h-7.5l-3.4,16.7c-0.1,0.7-0.2,1.4-0.2,2.2
			c0,2.4,1,3.6,3.7,3.6c1.1,0,2.2-0.5,3.1-0.9l1,3.3c-1.3,0.6-3.2,1.3-5.5,1.3c-5.1,0-7-2.9-7-6.5c0-1.2,0.2-2.2,0.3-3.2
			L657.9,308.9z"/>
		<path class="st0" d="M669.5,343.2c2.9,0,5.6-2.6,7.6-6.7l1.1-2.1l-5-29.2h4.6l2.3,16.4c0.4,2.6,0.7,5.9,1,8.7h0.2
			c1.4-2.8,2.9-5.9,4.3-8.7l8.4-16.4h4.6l-17.2,31.6c-3.1,5.7-6.6,10.1-12.2,10.1c-0.8,0-2.2-0.2-3.4-0.8l1.5-3.4
			C668.1,343,668.7,343.2,669.5,343.2z"/>
	</g>
	<path class="st0" d="M149.4,249.3C51.6,318.9,0.7,402.4,30.1,456.1c17.2,31.5,56,46.1,92,48.8c163.4,9.4,248.7-197.9,16.8-265.7
		C3,199.5-2.3,165.2,15.3,132.2c10.1-19.1,48.3-38.3,74.9-20.4c16.8,11.3,15.8,38.8,5.1,49.5c-6,6-13.6,6-18.1,1.5
		c-4.5-4.5-1.7-5.7,0.9-7.6c8.3-6.1,12.7-20.9-3.6-28.6c-32.6-10.7-86.2,38.6,9.2,76.5c83.3,33.1,226.6,54.2,214.7,190.7
		c-4.7,53.4-62,117.7-124.7,127.8c-87.2,14-183.8-19.8-172.6-106.9c7.5-58.4,60-125.2,131.8-171.7L149.4,249.3z"/>
</g>
</svg>
