<svg id="Layer_1" data-name="Layer 1" xmlns="http://www.w3.org/2000/svg" viewBox="0 0 698.55 524.77"><defs><style>.cls-1{fill:#2d2d2d;}</style></defs><title>logos</title><path class="cls-1" d="M582.77,9.64c0,6.77-10.68,4.1-16.62,4.54C476.65,12,373.06,33.72,373.06,33.72s-1.06,18.66-9.62,18.5c-9.67-.18-5.31-10.21-4.78-16.46-11.91,3.3-37.93,8.78-49.87,11.9-0.66,4.65-14.35,101.87,3.43,118.08,3.59,3.35,5.09,4.66,11.46-4.05,7-9.34,20.66-42.06,24.6-75.87,1.18-10.08,2.8-15.52,13.87-14.09,10.3,1.33,2.22,22.65,1.55,29.06-1.29,12.35-.86,43.45,5.22,54.75,7.39,13.73,21-20.34,26.69-29.36C394.13,119,382,74.65,382.73,70.31c0.66-4,2.78-7.15,7.91-6,4.35,1,5,4.33,5.95,8.23,3.59,14.17,6.32,28.6,9.71,42.83,2.75,11.55,4,24,10.39,34,16.73-12,31.47-91,37.64-93.57,8-3.35,9.58,3.61,7.58,9.66-3.51,10.64-11.42,32.17-14.38,47.3,2.75,16.37,7.42,15.41,23.11,16.72,0.72-24.54.82-83.24,33.12-84.73,34-1.57,8.13,78.2-14.81,87.28-2,7.71.4,23.24,8,23.35,17.1,0.23,25.32-29.47,30.15-42.23A109.26,109.26,0,0,0,533.63,88c0.83-6.63,1-14.51,10-13.63,18,1.77,3.2,33.13.26,41.82-5.71,16.84-11.71,28.19-25.65,39.67-12.45,10.25-42.7,11.66-46.32-17.87-2.25,0-4.22-.07-5.47-0.09-9.56-.2-17.64-2.86-23.69-10.49-4.62,10.26-13.82,35.17-25.55,34.77-12.11-.42-17.09-18.58-17.68-19.84-3.82,3.6-16.81,22.48-22,23.91-11.8,3.26-26.12-6.47-28.52-24.7-3.17,7.89-14,33.28-28.75,35-15.73,1.78-26.51-5.82-31.13-23.67-7.59,15-9.93,25.27-22.74,36.91-10.3,9.35-33.1,16.28-30.22-6.17-3.28,25.54-61.28,46.12-61.28,46.12s-13.09-4.47-16.2-5.24c2.53-1.87,18.12-8.12,26.12-13.2-10,.11-33.45-34.37-5.46-77.59,14.18-21.9,52-24.7,57.57-8.35,1.15-5.12-.64-10.25,4.37-19,3.13-5.44,13.87-4.19,14.51,1.69,0.73,6.8-2.45,11.26-3.5,16.4-8.83,43.26-9.32,63.44-1.18,63.44,9.11,0,35.23-51.71,40.74-136.63-15.72,3.14-89.65,26.21-96.45,24.26s-1-8.58,8.32-12.78,85-23.26,89.59-25.54c1.13-4.52-1-27.2,13.11-25.55,10.13,1.18,6,15.81,4.86,22.22,10.07-2.14,45.3-10.63,49.14-11.46,1-2.78,1.79-19.84,7.5-21.17,10.52-2.44,7.92,14.65,7.29,19C381.35,19.36,582.77-16.77,582.77,9.64ZM212.67,195.48c13-10.19,31.58-49.2,12.41-58.72-34.28-17-51.21,29.64-46.29,45.88C183,196.66,199.62,206.51,212.67,195.48ZM487.81,121c13.79-10.84,23.08-50.91,18.51-67.5C490.28,71.19,486.33,108.73,487.81,121Z"/><path class="cls-1" d="M653,69.2c-29.82-8.31-19.61,23.06-4.57,50.51,9.39,17.14,12.74,25.53,2.29,42.66-6.65,10.9-18.36,17.75-31.09,15.43-23.43-4.27-33.32-22.9-27.26-28-10.13,8.62-15.45,17-29.12,10.08-38.6-19.46,22.56-52.29,21.85-77.24-0.4-14.17-21.78-11.67-31.05-13.25-17.56-3-27.22-11.87-27.94-31.81,13.06-5.47,14.54,5.23,21.87,13,7.69,8.15,12.39,9.35,22.91,10.53,9.87,1.11,47.21,12.39,22.83,42.57-7.9,9.78-20.73,20.15-26,31.46-4.68,10-2.15,18.68,9.17,17.49,10.72-1.13,14.59-12.91,26.93-30.16,4.05-5.67,8.22-1.72,14.32.28-7.22,14.91-25.19,42.83.43,47.61,6.3,1.18,16.92-6.95,19.09-13.23,4.58-13.3,2.58-21.31-4.1-33.49-6.47-11.8-16.18-21.39-16.88-35.61-1.52-30.65,34.37-34.41,53.57-18.31,8,6.68,8.49,23.46,1.72,31.59-5.85,7-13.28,7.22-20.9.08C659.7,95.6,670.56,75.63,653,69.2Z"/><path class="cls-1" d="M654.89,175.69c6.5-6,12.43-7.12,15.91-2.59,1.33,1.73,2,5.76.92,7.22C668.4,184.82,653.55,182.48,654.89,175.69Z"/><path class="cls-1" d="M320.58,253.58a11.83,11.83,0,0,0,10.14,5.58c4.8,0,8.46-2.94,8.46-7.44,0-2.88-2-4.68-4.92-6.48l-4.56-2.76c-3.36-2-6.06-4.8-6.06-9.24,0-5.94,5.16-10.92,12.24-10.92A14.18,14.18,0,0,1,347,227.85L344,230.61a10.94,10.94,0,0,0-8.46-4.26c-4.44,0-7.14,3.18-7.14,6.36s2.22,4.68,5.1,6.42l4.56,2.7c3.78,2.22,5.94,4.86,5.94,9.24,0,7-5.7,12.06-13.68,12.06a15.21,15.21,0,0,1-13.14-7Z"/><path class="cls-1" d="M364.61,232.53c6.54,0,9,4.56,9,10.56a19,19,0,0,1-1,5.7h-19c-1.08,7.5,2.82,10.68,7.92,10.68a11.65,11.65,0,0,0,6.54-2.52l1.8,3.06a16.35,16.35,0,0,1-9.42,3.12c-6.9,0-11.46-4.38-11.46-12.18C349,240,357,232.53,364.61,232.53Zm4.8,13.14a15.36,15.36,0,0,0,.3-3c0-3.3-1.44-6.48-5.64-6.48s-8.46,3.72-10,9.48h15.3Z"/><path class="cls-1" d="M394.12,232.53a9.61,9.61,0,0,1,7.56,3.54l-2.7,2.88a6.08,6.08,0,0,0-5.16-2.64c-5.82,0-11.28,6.84-11.28,14.82,0,5.28,2.28,8.16,6.9,8.16a10.61,10.61,0,0,0,6.48-2.58l2,3a14.88,14.88,0,0,1-9.36,3.42c-6.36,0-10.74-4.26-10.74-11.7C377.87,240.57,385.67,232.53,394.12,232.53Z"/><path class="cls-1" d="M403.18,251.42c0-11,7.74-18.89,15.72-18.89,6.3,0,10.44,4.44,10.44,11.7,0,11-7.8,18.89-15.78,18.89C407.26,263.12,403.18,258.68,403.18,251.42Zm4.62-.3c0,5.28,2.22,8.16,6.24,8.16,5.4,0,10.62-6.6,10.62-14.76,0-5.28-2.22-8.22-6.24-8.22C413.08,236.31,407.8,243,407.8,251.12Z"/><path class="cls-1" d="M439.35,233.25h3.78l-0.42,4.38H443c3.3-2.88,6.54-5.1,10.2-5.1,4.92,0,6.9,2.76,6.9,7.26a16.59,16.59,0,0,1-.48,4l-3.72,18.59h-4.56l3.6-18a17.66,17.66,0,0,0,.48-3.42c0-2.94-1.32-4.5-4.32-4.5-2.28,0-5.1,1.62-8.76,5.28l-4.14,20.63h-4.56Z"/><path class="cls-1" d="M489.38,231.09l2.28-11.4h4.62l-8.64,42.71h-3.78l0.48-4.32H484.1c-2.82,3-6.48,5-10.14,5-5.1,0-8.4-3.72-8.4-10.56,0-11.22,7.68-20,15.78-20a7.7,7.7,0,0,1,6.9,4.26h0.18Zm-4.56,22.61,2.64-13c-1.68-3.06-3.72-4.32-5.94-4.32-5.82,0-11.22,7.44-11.22,15.48,0,5,2.1,7.44,5.34,7.44C478.7,259.28,481.88,257.48,484.82,253.7Z"/><path class="cls-1" d="M514.69,237h-4.26l0.66-3.42,4.56-.3,2.16-8h3.9l-1.62,8h7.38L526.75,237h-7.5l-3.42,16.67a12.58,12.58,0,0,0-.18,2.16c0,2.4,1,3.6,3.72,3.6a7.28,7.28,0,0,0,3.06-.9l1,3.3a13.32,13.32,0,0,1-5.52,1.32c-5.1,0-7-2.88-7-6.48a27.09,27.09,0,0,1,.3-3.24Z"/><path class="cls-1" d="M528,251.42c0-11,7.74-18.89,15.72-18.89,6.3,0,10.44,4.44,10.44,11.7,0,11-7.8,18.89-15.78,18.89C532.09,263.12,528,258.68,528,251.42Zm4.62-.3c0,5.28,2.22,8.16,6.24,8.16,5.4,0,10.62-6.6,10.62-14.76,0-5.28-2.22-8.22-6.24-8.22C537.91,236.31,532.63,243,532.63,251.12Z"/><path class="cls-1" d="M578,223.05h4.68l9,25.19,2.52,8.22h0.24c0.48-3.9,1-8.46,1.8-12.54l4.14-20.87h4.5l-7.86,39.35h-4.62l-8.88-25.13L581,228.81h-0.24c-0.48,4.08-1.08,8.46-1.86,12.42l-4.2,21.17h-4.5Z"/><path class="cls-1" d="M607.55,251.42c0-11,7.74-18.89,15.72-18.89,6.3,0,10.44,4.44,10.44,11.7,0,11-7.8,18.89-15.78,18.89C611.63,263.12,607.55,258.68,607.55,251.42Zm4.62-.3c0,5.28,2.22,8.16,6.24,8.16,5.4,0,10.62-6.6,10.62-14.76,0-5.28-2.22-8.22-6.24-8.22C617.45,236.31,612.17,243,612.17,251.12Z"/><path class="cls-1" d="M643.72,233.25h3.78l-0.42,4.38h0.24c3.3-2.88,6.54-5.1,10.2-5.1,4.92,0,6.9,2.76,6.9,7.26a16.61,16.61,0,0,1-.48,4l-3.72,18.59h-4.56l3.6-18a17.66,17.66,0,0,0,.48-3.42c0-2.94-1.32-4.5-4.32-4.5-2.28,0-5.1,1.62-8.76,5.28l-4.14,20.63H638Z"/><path class="cls-1" d="M685.41,232.53c6.54,0,9,4.56,9,10.56a19,19,0,0,1-1,5.7h-19c-1.08,7.5,2.82,10.68,7.92,10.68a11.65,11.65,0,0,0,6.54-2.52l1.8,3.06a16.35,16.35,0,0,1-9.42,3.12c-6.9,0-11.46-4.38-11.46-12.18C669.81,240,677.79,232.53,685.41,232.53Zm4.8,13.14a15.36,15.36,0,0,0,.3-3c0-3.3-1.44-6.48-5.64-6.48s-8.46,3.72-10,9.48h15.3Z"/><path class="cls-1" d="M469.59,305.23h4.62l-5.88,29.15h-4.56Zm1-8.76A3.48,3.48,0,0,1,474,293a2.76,2.76,0,0,1,2.94,2.76,3.43,3.43,0,0,1-3.48,3.42A2.71,2.71,0,0,1,470.55,296.47Z"/><path class="cls-1" d="M483.74,305.23h3.78l-0.42,4.38h0.24c3.3-2.88,6.54-5.1,10.2-5.1,4.92,0,6.9,2.76,6.9,7.26a16.59,16.59,0,0,1-.48,4l-3.72,18.59h-4.56l3.6-18a17.66,17.66,0,0,0,.48-3.42c0-2.94-1.32-4.5-4.32-4.5-2.28,0-5.1,1.62-8.76,5.28l-4.14,20.63H478Z"/><path class="cls-1" d="M550.56,343.44a12.37,12.37,0,0,1-3.9.66c-6.66,0-11.76-2.94-13.74-9.36-6.66-1.5-10.2-7.56-10.2-16.14,0-12,7.86-24.29,19.13-24.29,8.82,0,13.62,6.54,13.62,16.44,0,11.58-7.26,23.33-17.75,24.29,1.38,3.48,5,5.16,9.24,5.16a14.59,14.59,0,0,0,3.3-.42Zm-14-12.36c8.46,0,14.16-10.74,14.16-19.91,0-7.74-2.88-12.84-9.12-12.84-8.46,0-14.16,10.68-14.16,19.92C527.47,325.92,530.29,331.08,536.59,331.08Z"/><path class="cls-1" d="M581,334.38H577.2l0.48-4.44h-0.24c-3.18,2.82-6.54,5.16-10.08,5.16-4.92,0-6.9-2.82-6.9-7.26a16.28,16.28,0,0,1,.48-4l3.72-18.59h4.62l-3.66,18a17.66,17.66,0,0,0-.48,3.42c0,2.94,1.32,4.5,4.32,4.5,2.28,0,5.1-1.62,8.64-5.28l4.14-20.63h4.56Z"/><path class="cls-1" d="M606.89,304.51a7.81,7.81,0,0,1,7,4.38h0.24l1.14-3.66H619l-5.82,29.15h-3.78l0.48-4.32h-0.24c-2.82,3-6.48,5-10.14,5-5.1,0-8.4-3.72-8.4-10.56C591.11,313.33,598.79,304.51,606.89,304.51Zm3.48,21.17,2.64-13c-1.68-3.06-3.72-4.32-5.94-4.32-5.82,0-11.22,7.44-11.22,15.48,0,5,2.1,7.44,5.34,7.44C604.25,331.26,607.49,329.46,610.37,325.68Z"/><path class="cls-1" d="M631.36,291.67H636L628.48,329a5.08,5.08,0,0,0-.12,1.14,1,1,0,0,0,1,1.08,2.48,2.48,0,0,0,1-.18l0.06,3.54a7.56,7.56,0,0,1-2.88.48c-2.58,0-3.9-1.38-3.9-3.78a11.46,11.46,0,0,1,.36-2.52Z"/><path class="cls-1" d="M643.54,305.23h4.62l-5.88,29.15h-4.56Zm1-8.76A3.48,3.48,0,0,1,648,293a2.76,2.76,0,0,1,2.94,2.76,3.43,3.43,0,0,1-3.48,3.42A2.71,2.71,0,0,1,644.5,296.47Z"/><path class="cls-1" d="M657.94,308.95h-4.26l0.66-3.42,4.56-.3,2.16-8H665l-1.62,8h7.38L670,308.95h-7.5l-3.42,16.67a12.58,12.58,0,0,0-.18,2.16c0,2.4,1,3.6,3.72,3.6a7.28,7.28,0,0,0,3.06-.9l1,3.3a13.32,13.32,0,0,1-5.52,1.32c-5.1,0-7-2.88-7-6.48a27.09,27.09,0,0,1,.3-3.24Z"/><path class="cls-1" d="M669.51,343.2c2.94,0,5.64-2.64,7.62-6.66l1.08-2.1-5-29.21h4.56l2.28,16.38c0.42,2.64.72,5.94,1,8.7h0.24c1.38-2.76,2.88-5.94,4.32-8.7l8.4-16.37h4.56l-17.16,31.61c-3.06,5.7-6.6,10.08-12.18,10.08a7.88,7.88,0,0,1-3.36-.84l1.5-3.42A4.6,4.6,0,0,0,669.51,343.2Z"/><path class="cls-1" d="M149.36,249.29C51.61,318.9.71,402.39,30.07,456.12c17.23,31.54,56,46.12,92,48.79C285.41,514.34,370.74,307,138.87,239.18,3,199.45-2.26,165.24,15.27,132.2c10.12-19.06,48.35-38.3,74.91-20.4,16.8,11.32,15.8,38.79,5.06,49.55-6,6-13.64,6-18.11,1.52s-1.7-5.66.9-7.58c8.34-6.15,12.75-20.86-3.65-28.63-32.59-10.72-86.22,38.57,9.16,76.49,83.31,33.12,226.61,54.15,214.69,190.73-4.66,53.41-62,117.75-124.71,127.83C86.32,535.73-10.25,501.87.88,414.77c7.47-58.39,60-125.15,131.8-171.66Z"/></svg>